<svg width="188" height="17" fill="none" xmlns="http://www.w3.org/2000/svg">
  <path d="M8.945 16.89c-4.843 0-8.056-3.267-8.056-8.356 0-4.978 3.167-8.311 7.94-8.311 4.018 0 6.84 2.289 7.254 5.733h-3.328c-.322-1.978-1.86-3.089-3.925-3.089-2.892 0-4.613 2.267-4.613 5.667 0 3.733 1.928 5.71 4.728 5.71 2.433 0 3.993-1.332 4.154-3.332v-.223H8.623V8.2h7.574v2.045c-.137 3.978-3.03 6.644-7.252 6.644ZM18.204 16.667V.445h8.056c4.108 0 5.738 1.933 5.738 4.733 0 2.511-1.836 3.711-3.97 4v.067c1.376.333 1.996 1.067 2.57 2.511.734 1.822.849 4 1.79 4.778v.133h-3.672c-.78-.756-.964-3.133-1.377-4.578-.413-1.489-1.309-1.666-2.984-1.666h-2.938v6.244h-3.213Zm3.213-8.822h4.499c1.882 0 2.754-1.067 2.754-2.445 0-1.51-1.079-2.377-2.754-2.377h-4.499v4.822ZM34.132 16.667V.445h11.453v2.578h-8.24v3.866h7.437v2.578h-7.437v4.556H45.7v2.644H34.132ZM47.93 16.667V.445h11.454v2.578h-8.24v3.866h7.436v2.578h-7.436v4.556h8.354v2.644H47.931ZM61.73 16.667V.445h3.901L71.186 9.4c1.698 2.711 1.905 3.6 1.905 3.6h.068L73.113.445h3.214v16.222h-3.925l-5.76-9.222c-1.31-2.089-1.653-3.356-1.653-3.356h-.046v12.578H61.73ZM78.744 16.667v-3.289h3.35v3.29h-3.35ZM84.508 16.667V.445h3.213v6.489h7.69V.444h3.212v16.223H95.41V9.512h-7.689v7.155h-3.213ZM99.997 16.667 106.423.445h3.489l6.518 16.222h-3.443l-1.354-3.733h-6.954l-1.354 3.733h-3.328Zm5.6-6.311h5.118l-1.492-4c-1.033-2.956-1.056-3.489-1.056-3.489h-.045s0 .533-1.033 3.489l-1.492 4ZM117.799 16.667V.445h8.056c4.108 0 5.738 1.933 5.738 4.733 0 2.511-1.836 3.711-3.971 4v.067c1.377.333 1.997 1.067 2.571 2.511.734 1.822.849 4 1.79 4.778v.133h-3.672c-.781-.756-.964-3.133-1.378-4.578-.413-1.489-1.308-1.666-2.983-1.666h-2.938v6.244h-3.213Zm3.213-8.822h4.498c1.882 0 2.755-1.067 2.755-2.445 0-1.51-1.079-2.377-2.755-2.377h-4.498v4.822ZM137.133 16.667 130.982.445h3.443s3.328 9.089 3.672 10.2c.551 1.778.804 2.689.804 2.689h.046c-.023 0 .229-.911.803-2.69.367-1.11 3.557-10.2 3.557-10.2h3.328l-5.921 16.223h-3.581ZM147.951 16.667V.445h11.453v2.578h-8.239v3.866h7.436v2.578h-7.436v4.556h8.354v2.644h-11.568ZM167.496 16.89c-4.269 0-6.839-2.245-6.839-5.579h3.672c-.046 1.89 1.239 2.934 3.167 2.934 2.043 0 3.007-.778 3.007-1.933 0-1.156-.826-1.645-3.764-2.423-2.686-.71-5.623-1.555-5.623-4.889 0-2.644 2.387-4.777 6.151-4.777 3.878 0 6.357 2.11 6.357 5.089h-3.557c-.023-1.578-1.125-2.445-2.8-2.445-1.63 0-2.709.8-2.709 1.867 0 1.266.895 1.666 3.237 2.31 3.465.934 6.265 1.312 6.265 4.934 0 2.911-2.731 4.911-6.564 4.911ZM179.293 16.667V3.09h-5.073V.445h13.335v2.644h-5.049v13.578h-3.213Z" fill="#FBFBFB"/>
</svg>
